<svg width="108" height="141" viewBox="0 0 108 141" fill="none" xmlns="http://www.w3.org/2000/svg">
<path d="M-0.570762 23.0276C-0.979198 23.402 -1.01497 24.0401 -0.650655 24.4527L5.28615 31.177C5.65047 31.5896 6.2769 31.6206 6.68534 31.2461C7.09377 30.8716 7.12954 30.2336 6.76523 29.8209L1.48807 23.8438L7.40438 18.4195C7.81281 18.045 7.84858 17.407 7.48427 16.9943C7.11996 16.5817 6.49352 16.5508 6.08508 16.9252L-0.570762 23.0276ZM108.195 116.618C77.0444 109.94 59.2262 100.994 48.8706 91.3818C38.5573 81.8087 35.5559 71.4912 34.2398 61.7892C33.9096 59.3546 33.6858 56.9605 33.4789 54.6168C33.2727 52.2806 33.0825 49.9842 32.8204 47.7815C32.2969 43.3814 31.4754 39.2363 29.58 35.6359C25.7209 28.305 17.6479 23.6314 0.145376 22.767L0.0323902 24.7825C17.2855 25.6345 24.4622 30.2007 27.8314 36.6009C29.5501 39.866 30.3374 43.7092 30.8528 48.0412C31.1102 50.2045 31.2971 52.4602 31.5049 54.8145C31.712 57.1614 31.9393 59.5964 32.2764 62.0821C33.6301 72.0614 36.7615 82.8842 47.5284 92.8783C58.253 102.833 76.4624 111.881 107.771 118.592L108.195 116.618Z" fill="#532525"/>
</svg>
